<?xml version="1.0" encoding="UTF-8" standalone="no"?>
<svg
	xmlns="http://www.w3.org/2000/svg"
	version="1.1"
	width="108"
	height="108">
	<!-- <g>
		<rect
			width="72"
			height="72"
			x="18"
			y="18"
			ry="4" rx="4"
			style="fill:red;" />
		<circle
			r="36"
			cx="54"
			cy="54"
			style="fill:green;"/>
	</g> -->
	<g transform="translate(42, 20) scale(1.5)" style="fill:white;">
		<g transform="translate(0, 40)">
			<path
				d="M 0 0
				L 0 -8
				A 8 8 0 0 1 16 -8
				L 16 0
				Z"/>
			<rect
				width="10"
				height="10"
				x="3"
				y="-17"
				transform="rotate(0, 8, -11)"/>
		</g>
		<g transform="translate (8, 13)">
			<path
				d="M -7.5 0
				A 7.5 7.5 0 0 1  7.5 0
				A 7.5 7.5 0 0 1 -7.5 0
				Z
				M -4 -5
				L -4 -2.5
				L 1 -2.5
				L 1 -1
				L -4 -1
				L -4 1
				L 1 1
				L 1 2.5
				L -4 2.5
				L -4 5
				L 4 5
				L 4 -5
				Z"/>
		</g>
	</g>
</svg>
