<?xml version="1.0" encoding="UTF-8" standalone="no"?>
<svg
	xmlns="http://www.w3.org/2000/svg"
	version="1.1"
	width="48"
	height="48">
	<g>
		<rect
			width="44"
			height="44"
			x="2"
			y="2"
			style="fill:black;"
			rx="4" ry="4" />
	</g>
	<g transform="translate(0)" style="fill:white;">
		<g transform="translate(16, 40)">
			<path
				d="M 0 0
				L 0 -8
				A 8 8 0 0 1 16 -8
				L 16 0
				Z"/>
			<rect
				width="10"
				height="10"
				x="3"
				y="-17"
				transform="rotate(0, 8, -11)" style="fill:white;"/>
		</g>
		<g transform="translate (24, 13)">
			<path
				d="M -7.5 0
				A 7.5 7.5 0 0 1  7.5 0
				A 7.5 7.5 0 0 1 -7.5 0
				Z
				M -4 -5
				L -4 -2.5
				L 1 -2.5
				L 1 -1
				L -4 -1
				L -4 1
				L 1 1
				L 1 2.5
				L -4 2.5
				L -4 5
				L 4 5
				L 4 -5
				Z"/>
		</g>
	</g>
</svg>
