<?xml version="1.0" encoding="UTF-8" standalone="no"?>
<svg
	xmlns="http://www.w3.org/2000/svg"
	version="1.1"
	width="1024"
	height="1024">
	<g>
		<rect
			width="1024"
			height="1024"
			x="0"
			y="0"
			style="fill:black;" />
			<!--rx="204.8" ry="204.8"-->
	</g>
	<g transform="translate(-102.4, -102.4) scale(1.2)">
	<!--<g transform="">-->
		<path
			d="M 300 1024
			l 0 -230
			a 212 212 0 0 1 424 0
			l 0 230
			Z"
			style="fill:white;"/>

		<rect
			width="240"
			height="300"
			x="392"
			y="794"
			transform="rotate(200, 512, 794)"
			style="fill:white;" />

		<g
			transform="translate(693, 285) scale(140)">
			<circle
				cx="0"
				cy="0"
				r="1"
				style="fill:white;"/>

			<path d="M -0.5 -0.7
				L-0.5 -0.3
				L0.1 -0.3
				L0.1 -0.15
				L-0.5 -0.15
				L-0.5 0.15
				L0.1 0.15
				L0.1 0.3
				L-0.5 0.3
				L-0.5 0.7
				L0.5 0.7
				L0.5 -0.7
				Z"
				style="fill:black;"/>
		</g>
	</g>
</svg>
